PathFileType	4	(X/Y/Z)	Patient4_TMGait_0pt8_01_right_13.trc.trc
DataRate	CameraRate	NumFrames	NumMarkers	Units	OrigDataRate	OrigDataStartFrame	OrigNumFrames
89.743589743590	89.743589743590	4	33	mm	89.743589743590	124	       141
Frame#	Time	Sacral			L.Shoulder			Chest			R.Shoulder			Neck			R.ASIS			L.ASIS			R.Thigh.Superior			R.Thigh.Lateral			R.Thigh.Inferior			R.Patella			L.Thigh.Superior			L.Thigh.Lateral			L.Thigh.Inferior			L.Patella			L.Shank.Superior			L.Shank.Lateral			L.Shank.Inferior			R.Shank.Superior			R.Shank.Lateral			R.Shank.Inferior			R.Heel			R.Midfoot.Superior			R.Midfoot.Lateral			R.Toe			L.Heel			L.Midfoot.Lateral			L.Midfoot.Superior			L.Toe			L.Elbow			L.Wrist			R.Elbow			R.Wrist			
		X1	Y1	Z1	X2	Y2	Z2	X3	Y3	Z3	X4	Y4	Z4	X5	Y5	Z5	X6	Y6	Z6	X7	Y7	Z7	X8	Y8	Z8	X9	Y9	Z9	X10	Y10	Z10	X11	Y11	Z11	X12	Y12	Z12	X13	Y13	Z13	X14	Y14	Z14	X15	Y15	Z15	X16	Y16	Z16	X17	Y17	Z17	X18	Y18	Z18	X19	Y19	Z19	X20	Y20	Z20	X21	Y21	Z21	X22	Y22	Z22	X23	Y23	Z23	X24	Y24	Z24	X25	Y25	Z25	X26	Y26	Z26	X27	Y27	Z27	X28	Y28	Z28	X29	Y29	Z29	X30	Y30	Z30	X31	Y31	Z31	X32	Y32	Z32	X33	Y33	Z33	

124	15.720571428571	895.060811960165	981.861448397904	436.480644475231	1071.156570477642	1420.422930874614	272.889368078839	1163.408204404401	1349.429238460586	438.978678688098	1064.694569594294	1415.193659252780	608.235406936777	1042.342590733764	1474.970645422852	428.503709248443	1120.488675834504	921.361503402333	561.381529230992	1112.840077371003	947.070178576094	286.348952725861	1196.912895029861	750.399143490370	530.957540026707	1151.014351514414	626.127539957116	601.836320999420	1242.116285006938	594.138920285595	522.932919434818	1274.490851765095	511.971943907320	537.160900815403	1102.812404520615	715.437522344166	308.013100488013	975.917471002840	628.344842438530	248.706068427138	1030.798993046544	529.953491208621	310.773281443828	1011.663121879292	462.256170970992	319.170704625747	971.173363345209	399.760846055682	312.652873009214	857.353587274314	304.999036606231	267.394306066008	889.547969377050	185.562364012940	336.532645981520	1262.834212303268	421.190656391743	546.731517120886	1211.858879523447	303.999915668469	604.816925669509	1285.676246167868	222.176876807419	553.501203290437	1197.626765795170	39.591781826228	519.637796800173	1358.394529271481	111.540560106034	563.321798294773	1278.553214499647	39.606409635961	597.176345364831	1481.524456065425	74.432568534187	596.322275402090	745.618084186879	41.468446399147	391.504142268873	810.935109541247	35.135035940759	304.216276072672	897.962413660083	95.243957898225	322.600719462493	1021.946127658623	41.685267931734	280.828843988695	1182.681521617066	1119.844816059641	104.173639059923	1434.732257028318	1134.167717415049	147.647919962216	892.842081409424	1119.783990402888	707.888798765504	823.954392839418	869.980481593853	726.623185518414	
125	15.731714285714	897.243729042964	980.421667575687	438.879523807444	1072.527631606540	1419.098336904901	274.878589460749	1165.000362849253	1348.489614201586	441.023046076242	1066.099073187549	1414.198377498004	610.241931330244	1043.752345859493	1473.770056398144	430.486138996955	1123.199518501531	920.192338311290	563.459813281449	1114.929583970662	945.686713080022	288.508355614416	1200.038320893033	749.321746838328	532.563140044571	1152.724121552231	624.789203293779	602.072786578269	1244.183056874881	593.065821669857	523.763305036375	1275.064917613010	509.838626124881	537.025611866588	1104.936380828292	713.961864409938	309.481936145606	977.805578831199	626.888207188513	250.593153974364	1033.101598338229	528.034612448129	311.977805028160	1013.715264209907	459.343237746118	319.967172161818	971.025993322234	397.543220136772	313.548529283359	854.552876632269	305.958004633895	268.332982059426	883.756750284732	185.297777090418	336.565574495684	1262.792089284365	418.678511909562	546.447290095769	1210.475713550395	302.124919025411	604.372304621132	1282.564284174850	219.509220658573	552.460761288029	1190.613982682590	39.860298761440	518.711763714074	1353.015364397880	108.084920393487	561.345711764905	1271.657698059826	38.678856639364	596.183913884977	1475.544429639451	68.360809881997	594.185181245263	736.777454478656	43.621373501970	390.892967880725	802.176558367904	35.957515823807	303.919882746250	889.898431669293	95.363467254365	322.097262753742	1013.195566190787	41.028042841106	280.670191665829	1183.412638289725	1118.074051383807	106.443144019655	1434.176364504460	1140.255823761826	151.360659094689	891.689125071211	1120.838520142515	709.334474492088	820.184433323439	871.660750835233	727.866225726471	
126	15.742857142857	899.364592311668	979.356169398545	441.400249665958	1073.952324584101	1418.085685043642	276.913175299659	1166.664100153423	1347.858113140006	443.111859688095	1067.631100980333	1413.498939456752	612.336156958034	1045.258517793430	1472.933308448465	432.536077357393	1125.894702346743	919.459712629168	565.687951326900	1116.961289695275	944.592961780650	290.836193520946	1203.415372249727	748.899227217693	534.256893076054	1154.895679326947	624.147364080306	602.571845993172	1246.675713291860	592.585845432946	524.871637857371	1276.100462637033	508.140661430544	537.301339864074	1107.335907021305	712.808299827189	311.120406185656	980.238089735457	625.492421824662	252.617750352784	1036.324045435811	526.247155079632	313.171626789083	1016.787577003349	456.427509489745	320.577370207188	971.656549556071	395.408014969058	314.344348966514	852.392664677459	307.360377250329	269.288992400120	878.475166772407	185.448887866625	336.486359180532	1262.872621547828	416.579724249358	546.439241889658	1208.969123887067	300.867134786930	604.476961848550	1278.771120930976	217.161464307256	551.713819474440	1182.229336487766	40.365240198882	518.078678605586	1346.320841998345	104.964000216691	559.833507717361	1263.385852086407	37.979724818317	595.531007147785	1468.226177419839	62.620808388386	592.481410364924	728.147927840426	46.827257752368	390.215894407966	793.505965005183	37.351336129420	303.584107727633	882.155413491112	95.643730767209	321.438908123598	1004.364215300871	40.332302439638	280.517987693028	1183.480334735309	1116.108015841986	108.968096172707	1432.986352837050	1144.933453743107	155.054890909665	891.757533283439	1121.314227284506	710.868372087925	818.201353839259	872.602138746379	729.241982251385	
127	15.754000000000	901.407614695273	978.710062172024	444.017018620577	1075.426028256973	1417.446472749166	278.981497413526	1168.384604650107	1347.568967797857	445.226830392671	1069.285681694593	1413.135480201452	614.498757417476	1046.844154603424	1472.504132887715	434.637855663446	1128.534761362703	919.193539025376	568.048536784820	1118.893782518289	943.846734540310	293.307012843106	1206.862489629823	749.053710701733	536.060968049268	1157.351863760025	624.159057536917	603.427627203882	1249.341928472454	592.582770782243	526.288525067433	1277.372959330317	506.874320689792	538.060183789556	1110.011609585369	712.033295113688	312.904104050452	983.282838577251	624.173408284742	254.721933327101	1040.560175454203	524.642307129680	314.314832809767	1020.963027447940	453.567121958237	320.948711250067	973.175538628195	393.406587429976	314.991505225779	851.008203715695	309.272508462220	270.221834506624	873.830869546649	186.114178140895	336.284848212904	1262.946956321663	414.914490419517	546.774483911188	1207.342062303055	300.172131000083	605.160977601487	1274.463526398553	215.199766141954	551.307747687930	1173.029828319564	40.954547825602	517.749794692532	1338.700298526232	102.358267388442	558.833087571818	1254.285644498736	37.490813487747	595.218301816254	1460.017546345768	57.653618531942	591.264911471677	719.850376406913	51.309160727997	389.493475330857	784.990463018117	39.503609697444	303.219486253346	874.830578310563	96.153385133477	320.632397766268	995.438879392316	39.581551934678	280.389071874530	1182.834316083217	1114.001997674096	111.756589034934	1431.233930392608	1148.176780559086	158.711352978195	893.041764192545	1121.223353072432	712.505318093319	818.050632962743	872.797803430523	730.762933567878	
